<?xml version="1.0" encoding="UTF-8"?><svg id="Layer_2" xmlns="http://www.w3.org/2000/svg" xmlns:xlink="http://www.w3.org/1999/xlink" viewBox="0 0 254 254"><defs><style>.cls-1{fill:url(#linear-gradient);}.cls-1,.cls-2,.cls-3,.cls-4,.cls-5,.cls-6,.cls-7,.cls-8,.cls-9,.cls-10,.cls-11,.cls-12,.cls-13,.cls-14,.cls-15{stroke-width:0px;}.cls-2{fill:#83cd6a;}.cls-3{fill:url(#linear-gradient-5);}.cls-4{fill:#21b7ee;}.cls-5{fill:#fff;}.cls-6{fill:#38accd;}.cls-7{fill:#111f2b;}.cls-8{fill:#8ca5aa;}.cls-9{fill:url(#linear-gradient-2);}.cls-10{fill:url(#New_Gradient_Swatch_1);}.cls-11{fill:url(#linear-gradient-3);}.cls-12{fill:url(#radial-gradient);}.cls-13{fill:#1fc1ec;}.cls-14{fill:url(#linear-gradient-4);}.cls-15{fill:#60feff;}</style><linearGradient id="linear-gradient" x1="104.726136" y1="149.273864" x2="149.273864" y2="104.726136" gradientUnits="userSpaceOnUse"><stop offset="0" stop-color="#3bcaee"/><stop offset="1" stop-color="#28b3dc"/></linearGradient><linearGradient id="linear-gradient-2" x1="122.137338" y1="153.637338" x2="138.397348" y2="137.377328" gradientUnits="userSpaceOnUse"><stop offset="0" stop-color="#2caed9"/><stop offset="1" stop-color="#28b3dc"/></linearGradient><linearGradient id="linear-gradient-3" x1="101.462498" y1="146.012493" x2="139.487495" y2="107.987495" gradientUnits="userSpaceOnUse"><stop offset="0" stop-color="#1272a4"/><stop offset="1" stop-color="#28b3dc"/></linearGradient><linearGradient id="linear-gradient-4" x1="69.80591" y1="200.251809" x2="89.273583" y2="146.764818" gradientUnits="userSpaceOnUse"><stop offset="0" stop-color="#19a7e7"/><stop offset=".512859" stop-color="#1aa8e7"/><stop offset=".697613" stop-color="#21afe8"/><stop offset=".82928" stop-color="#2cbbeb"/><stop offset=".934982" stop-color="#3cccef"/><stop offset="1" stop-color="#4bdbf3"/></linearGradient><linearGradient id="New_Gradient_Swatch_1" x1="62.954619" y1="127.722412" x2="98.028734" y2="31.357074" gradientUnits="userSpaceOnUse"><stop offset="0" stop-color="#19a7e7"/><stop offset=".585356" stop-color="#34c3ed"/><stop offset="1" stop-color="#4bdbf3"/></linearGradient><linearGradient id="linear-gradient-5" x1="188.951232" y1="189.489069" x2="200.845463" y2="132.066048" gradientUnits="userSpaceOnUse"><stop offset="0" stop-color="#000"/><stop offset=".102545" stop-color="#040603"/><stop offset=".250437" stop-color="#10190d"/><stop offset=".425837" stop-color="#24391d"/><stop offset=".622386" stop-color="#406534"/><stop offset=".833722" stop-color="#639c50"/><stop offset="1" stop-color="#83cd6a"/></linearGradient><radialGradient id="radial-gradient" cx="188.179993" cy="188.179993" fx="188.179993" fy="188.179993" r="49.179993" gradientUnits="userSpaceOnUse"><stop offset="0" stop-color="#000"/><stop offset="0" stop-color="#000"/><stop offset="0" stop-color="#000"/><stop offset=".176516" stop-color="#020303"/><stop offset=".330374" stop-color="#0b0d0e"/><stop offset=".475818" stop-color="#1a1f20"/><stop offset=".61603" stop-color="#2f3739"/><stop offset=".752575" stop-color="#495759"/><stop offset=".884492" stop-color="#6a7d81"/><stop offset="1" stop-color="#8ca5aa"/></radialGradient></defs><circle class="cls-5" cx="127" cy="127" r="58.5"/><circle class="cls-7" cx="127" cy="127" r="50"/><circle class="cls-5" cx="127" cy="127" r="43.5"/><circle class="cls-1" cx="127" cy="127" r="31.5"/><path class="cls-9" d="M149.789978,148.769958c-5.75,5.990051-13.829956,9.730042-22.789978,9.730042v-32.52002l22.789978,22.789978Z"/><path class="cls-11" d="M127,95.5v63c-17.400024,0-31.5-14.100037-31.5-31.5s14.099976-31.5,31.5-31.5Z"/><circle class="cls-7" cx="127" cy="127" r="15"/><circle class="cls-5" cx="142.5" cy="108.5" r="5.5"/><path class="cls-14" d="M119,197.049988v17.960022c-42.429993-3.800049-76.210022-37.580017-80.01001-80.01001h17.960022c3.669983,32.549988,29.5,58.380005,62.049988,62.049988Z"/><path class="cls-10" d="M119,38.98999v17.960022c-32.549988,3.669983-58.380005,29.5-62.049988,62.049988h-17.960022c3.799988-42.429993,37.580017-76.210022,80.01001-80.01001Z"/><path class="cls-3" d="M215.01001,135c-1.900024,21.26001-11.340027,40.359985-25.619995,54.579956l-13.359985-11.909973c11.439941-11.070007,19.139954-25.98999,21.019958-42.669983h17.960022Z"/><path class="cls-2" d="M215.01001,119h-17.960022c-3.669983-32.549988-29.5-58.380005-62.049988-62.049988v-17.960022c42.429993,3.799988,76.210022,37.580017,80.01001,80.01001Z"/><path class="cls-5" d="M121.5,219.329956v7.02002c-50.570007-2.76001-91.090027-43.279968-93.849976-93.849976h7.019958c2.730042,46.709961,40.119995,84.099976,86.830017,86.829956Z"/><path class="cls-5" d="M226.349976,132.5c-2.759949,50.570007-43.279968,91.089966-93.849976,93.849976v-7.02002c46.710022-2.72998,84.099976-40.119995,86.830017-86.829956h7.019958Z"/><path class="cls-5" d="M226.349976,121.5h-7.019958c-2.730042-46.710022-40.119995-84.100037-86.830017-86.830017v-7.02002c50.570007,2.76001,91.090027,43.280029,93.849976,93.850037Z"/><path class="cls-5" d="M121.5,27.649963v7.02002c-46.710022,2.72998-84.099976,40.119995-86.830017,86.830017h-7.019958c2.759949-50.570007,43.279968-91.090027,93.849976-93.850037Z"/><path class="cls-12" d="M237.359985,139c-5.559998,51.719971-46.640015,92.799988-98.359985,98.359985v-4.539978c49.22998-5.51001,88.309998-44.590027,93.820007-93.820007h4.539978Z"/><path class="cls-8" d="M237.359985,115h-4.539978c-5.51001-49.230042-44.590027-88.309998-93.820007-93.820007v-4.539978c51.719971,5.559998,92.799988,46.639954,98.359985,98.359985Z"/><path class="cls-4" d="M115,232.820007v4.539978c-51.719971-5.559998-92.799988-46.640015-98.359985-98.359985h4.539978c5.51001,49.22998,44.590027,88.309998,93.820007,93.820007Z"/><path class="cls-4" d="M115,16.640015v4.539978c-49.22998,5.51001-88.309998,44.589966-93.820007,93.820007h-4.539978C22.200012,63.279968,63.280029,22.200012,115,16.640015Z"/><circle class="cls-5" cx="18.517767" cy="127" r="4.517767"/><circle class="cls-5" cx="235.482233" cy="127" r="4.517767"/><circle class="cls-5" cx="127" cy="18.517767" r="4.517767"/><circle class="cls-5" cx="127" cy="235.482233" r="4.517767"/><path class="cls-5" d="M37,123.5h19.500004c1.931701,0,3.499996,1.568296,3.499996,3.499996v.000007c0,1.931701-1.568296,3.499997-3.499997,3.499997h-19.500003v-7h0Z"/><path class="cls-5" d="M194,123.5h19.500003c1.931701,0,3.499997,1.568296,3.499997,3.499997v.000007c0,1.931701-1.568296,3.499996-3.499996,3.499996h-19.500004v-7h0Z" transform="translate(411 254) rotate(180)"/><path class="cls-5" d="M115.499973,45h19.500004c1.9317,0,3.499996,1.568296,3.499996,3.499996v.000007c0,1.931701-1.568296,3.499997-3.499997,3.499997h-19.500003v-7h0Z" transform="translate(175.499929 -78.49999) rotate(89.99998)"/><path class="cls-5" d="M115.500027,202h19.500004c1.9317,0,3.499996,1.568296,3.499996,3.499996v.000007c0,1.931701-1.568296,3.499997-3.499997,3.499997h-19.500003v-7h0Z" transform="translate(-78.499929 332.500098) rotate(-90.00002)"/><circle class="cls-13" cx="43" cy="43" r="4.5"/><circle class="cls-13" cx="211" cy="43" r="4.5"/><circle class="cls-13" cx="43" cy="211" r="4.5"/><circle class="cls-15" cx="35" cy="203" r="3"/><circle class="cls-6" cx="52.5" cy="220.5" r="2.5"/><path class="cls-5" d="M177.707172,164.090729h32.865093c2.139199,0,3.875958,1.736759,3.875958,3.875958v49.354663c0,11.208558-9.099927,20.308484-20.308484,20.308484h-.000041c-11.208558,0-20.308484-9.099927-20.308484-20.308484v-49.354663c0-2.139199,1.736759-3.875958,3.875958-3.875958Z" transform="translate(-85.16746 196.108126) rotate(-45)"/><path class="cls-7" d="M181.625631,170.447962h24.748737v47.729721c0,6.829593-5.544763,12.374356-12.374356,12.374356h-.000025c-6.829593,0-12.374356-5.544763-12.374356-12.374356v-47.72972h0Z" transform="translate(-84.953625 195.903791) rotate(-44.999997)"/><path class="cls-5" d="M195.728553,171.717253h3.56066v42.767399c0,.98259-.797738,1.780328-1.780328,1.780328h-.000004c-.98259,0-1.780328-.797738-1.780328-1.780328v-42.767399h0Z" transform="translate(-79.323421 196.478553) rotate(-45)"/></svg>